<svg width="32" height="30" viewBox="0 0 32 30" fill="none" xmlns="http://www.w3.org/2000/svg">
<mask id="mask0_29_2565" style="mask-type:alpha" maskUnits="userSpaceOnUse" x="4" y="0" width="24" height="25">
<g clip-path="url(#clip0_29_2565)">
<path d="M15.6697 9.43459L8.13867 16.9656L8.93392 17.7608L16.4649 10.2298L15.6697 9.43459Z" fill="white"/>
<path d="M15.6738 9.43677L8.13867 16.9719L8.93717 17.7704L16.4611 10.2353L15.6738 9.43677Z" fill="black"/>
<path d="M17.9905 13.479L11.3184 20.1511L12.1136 20.9464L18.7857 14.2743L17.9905 13.479Z" fill="white"/>
<path d="M17.9914 13.4856L11.3223 20.1548L12.1208 20.9533L18.7899 14.2729L17.9914 13.4856Z" fill="black"/>
<path d="M6.31695 12.7996C5.39275 11.789 4.80694 10.5151 4.64123 9.1557C4.81056 10.5141 5.39588 11.7869 6.31695 12.7996ZM4.58499 8.15476C4.60966 6.80838 5.03659 5.50018 5.81086 4.39844C5.02859 5.4976 4.59376 6.80601 4.5625 8.15476H4.58499Z" fill="white"/>
<path d="M11.3103 0.990739C10.2814 0.988975 9.26363 1.20445 8.32369 1.62306C7.38375 2.04168 6.54277 2.654 5.85575 3.41998C4.56586 4.86439 3.9018 6.7616 4.00934 8.69514C4.11687 10.6287 4.98722 12.4405 6.42932 13.733L7.18284 12.9008C5.96187 11.8049 5.22531 10.2696 5.13465 8.63147C5.044 6.99335 5.60665 5.38615 6.69924 4.16226C7.27995 3.51512 7.99102 2.99817 8.78573 2.6454C9.58045 2.29262 10.4408 2.11199 11.3103 2.11539C12.8334 2.11217 14.3038 2.67306 15.4378 3.68989L17.9457 5.93919L18.6992 5.0957L16.18 2.8464C14.8415 1.64785 13.107 0.986877 11.3103 0.990739Z" fill="black"/>
<path d="M11.9409 23.8998C11.9915 23.9481 12.0482 23.9897 12.1096 24.0235C12.0482 23.9897 11.9915 23.9481 11.9409 23.8998ZM11.2099 21.0769L10.4676 21.1781C10.3667 21.1893 10.2648 21.1893 10.1639 21.1781C9.59333 21.1821 9.04256 20.969 8.62317 20.5821C9.04142 20.9623 9.58748 21.1711 10.1527 21.1669C10.5477 21.1662 10.9356 21.0615 11.2773 20.8632L11.3786 20.9757C11.2351 21.2217 11.1397 21.4926 11.0974 21.7742L11.2099 21.0769ZM8.45448 20.4359C8.08118 20.0068 7.88427 19.4523 7.9034 18.8839C7.87805 19.4493 8.0668 20.0035 8.43198 20.4359H8.45448ZM8.02711 17.8942L7.28484 18.0066H6.96994C7.36601 18.0025 7.75397 17.8939 8.09459 17.6917L8.1958 17.7929C8.0528 18.031 7.95732 18.2945 7.91464 18.569L8.02711 17.8942ZM5.13676 17.0732C4.94251 16.8075 4.8152 16.4988 4.76562 16.1735C4.8152 16.4988 4.94251 16.8075 5.13676 17.0732L5.20424 17.1744L5.13676 17.0732ZM18.3064 10.7976C18.7259 10.7241 19.1159 10.533 19.431 10.2466C19.1159 10.533 18.7259 10.7241 18.3064 10.7976ZM17.2492 10.7302C16.9084 10.6255 16.594 10.4491 16.327 10.2128C16.594 10.4491 16.9084 10.6255 17.2492 10.7302ZM19.611 10.0441C19.8771 9.72243 20.0485 9.33302 20.1058 8.91947C20.0545 9.33472 19.8825 9.72577 19.611 10.0441ZM20.0946 8.2222C20.0325 7.81204 19.866 7.42474 19.611 7.09755C19.8656 7.425 20.032 7.81218 20.0946 8.2222ZM16.4395 3.16128C16.5469 3.0652 16.6596 2.97508 16.7769 2.89136L16.4395 3.16128Z" fill="white"/>
<path d="M20.6895 1.08058C19.7307 1.07909 18.7811 1.26709 17.8952 1.6338C17.0093 2.00051 16.2046 2.53869 15.5273 3.2174L15.831 3.5323L15.5273 3.83596L19.0363 7.34486C19.1971 7.50477 19.3247 7.6949 19.4118 7.90432C19.4989 8.11373 19.5438 8.3383 19.5438 8.56511C19.5438 8.79191 19.4989 9.01649 19.4118 9.2259C19.3247 9.43532 19.1971 9.62545 19.0363 9.78536C18.7391 10.0875 18.3353 10.2611 17.9116 10.269C17.6747 10.2671 17.4404 10.2184 17.2223 10.1258C17.0042 10.0331 16.8066 9.89835 16.6407 9.72913L13.2668 6.35518L12.8844 6.7488L12.4795 6.35518L5.09061 13.7441C4.60089 14.2188 4.29326 14.8503 4.22133 15.5285C4.1494 16.2067 4.31773 16.8886 4.69698 17.4555C4.94214 17.7792 5.25352 18.047 5.61036 18.241C5.96719 18.4349 6.36128 18.5505 6.76634 18.5801H6.99126H7.39614C7.33184 19.0114 7.36957 19.4518 7.5063 19.8658C7.64302 20.2799 7.87492 20.6561 8.18339 20.9644C8.71585 21.492 9.43566 21.7872 10.1853 21.7854C10.3125 21.7969 10.4404 21.7969 10.5676 21.7854C10.5451 21.9947 10.5451 22.2058 10.5676 22.4152C10.5914 22.82 10.7046 23.2145 10.899 23.5704C11.0935 23.9263 11.3644 24.2346 11.6923 24.4733C12.1508 24.8021 12.7026 24.9755 13.2668 24.9681C14.065 24.9651 14.8295 24.6456 15.3924 24.0796L25.8741 13.6092C27.2422 12.235 28.0102 10.3748 28.0102 8.43577C28.0102 6.4967 27.2422 4.63659 25.8741 3.2624C25.1948 2.58334 24.3881 2.04504 23.5004 1.67835C22.6126 1.31167 21.6612 1.12382 20.7007 1.12555L20.6895 1.08058ZM17.9116 11.3936C18.2769 11.3952 18.6388 11.3245 18.9766 11.1855C19.3144 11.0466 19.6214 10.8421 19.8797 10.5839C20.1406 10.3159 20.3462 9.99918 20.4846 9.65175C20.6229 9.30432 20.6915 8.93301 20.6863 8.55907C20.681 8.18513 20.6022 7.8159 20.4541 7.47247C20.3061 7.12904 20.0918 6.81815 19.8235 6.55761L16.8319 3.5548C17.9255 2.67689 19.2871 2.20054 20.6895 2.20522C21.5046 2.20689 22.3113 2.37084 23.0624 2.68751C23.8135 3.00418 24.4941 3.46722 25.0644 4.04965C25.6391 4.62407 26.0949 5.30608 26.406 6.05674C26.717 6.80739 26.8771 7.61198 26.8771 8.42453C26.8771 9.23707 26.717 10.0417 26.406 10.7923C26.0949 11.543 25.6391 12.225 25.0644 12.7994L14.5826 23.2811C14.4097 23.4581 14.2034 23.599 13.9756 23.6955C13.7477 23.7921 13.503 23.8424 13.2556 23.8435C12.9254 23.843 12.6034 23.7409 12.3333 23.551C12.1318 23.4068 11.964 23.2204 11.8417 23.0048C11.7194 22.7893 11.6454 22.5497 11.6248 22.3027C11.6054 22.0588 11.6396 21.8136 11.7251 21.5843C11.8106 21.355 11.9453 21.1473 12.1197 20.9756L11.3212 20.1771C11.1652 20.3338 10.9793 20.4574 10.7744 20.5405C10.5696 20.6236 10.3501 20.6645 10.129 20.6607C9.908 20.6645 9.68849 20.6236 9.48364 20.5405C9.27879 20.4574 9.09283 20.3338 8.93691 20.1771C8.77913 20.0212 8.65386 19.8356 8.56836 19.631C8.48287 19.4263 8.43884 19.2068 8.43884 18.985C8.43884 18.7632 8.48287 18.5436 8.56836 18.339C8.65386 18.1343 8.77913 17.9487 8.93691 17.7929L8.1384 17.0056C7.82096 17.32 7.39305 17.4976 6.94628 17.5005H6.81132C6.56431 17.4799 6.32473 17.4059 6.10917 17.2836C5.89361 17.1612 5.70724 16.9935 5.56296 16.7919C5.33842 16.4436 5.24354 16.0274 5.29494 15.6162C5.34634 15.205 5.54075 14.8249 5.84413 14.5426L12.8282 7.5473L15.8535 10.5726C16.1227 10.8452 16.4431 11.062 16.7963 11.2106C17.1494 11.3592 17.5285 11.4367 17.9116 11.4386V11.3936Z" fill="black"/>
<path d="M20.633 21.9204C20.6347 21.4247 20.4726 20.9424 20.1719 20.5483C20.4726 20.9424 20.6347 21.4247 20.633 21.9204Z" fill="white"/>
<path d="M15.6966 16.4209C15.3263 16.4217 14.9598 16.4957 14.6182 16.6385C14.2766 16.7813 13.9666 16.9902 13.7059 17.2531C13.4444 17.5134 13.2369 17.8227 13.0953 18.1633C12.9537 18.504 12.8809 18.8692 12.8809 19.2381C12.8809 19.6071 12.9537 19.9723 13.0953 20.313C13.2369 20.6536 13.4444 20.9629 13.7059 21.2232L16.3938 23.9223C16.9242 24.4462 17.639 24.741 18.3845 24.7433C19.1299 24.741 19.8447 24.4462 20.3751 23.9223C20.901 23.3933 21.1962 22.6776 21.1961 21.9317C21.1974 21.5621 21.1255 21.1959 20.9846 20.8543C20.8437 20.5126 20.6365 20.2023 20.3751 19.9411L17.6759 17.2531C17.4181 16.9895 17.1102 16.7801 16.7703 16.6372C16.4304 16.4942 16.0653 16.4207 15.6966 16.4209ZM18.3845 23.6186C17.9374 23.617 17.5091 23.4392 17.1923 23.1238L14.4932 20.4246C14.18 20.1069 14.0044 19.6787 14.0044 19.2325C14.0044 18.7864 14.18 18.3581 14.4932 18.0404C14.8141 17.7243 15.2461 17.5466 15.6966 17.5455C16.1431 17.5496 16.5706 17.727 16.8887 18.0404L19.5766 20.7395C19.7353 20.8945 19.861 21.0801 19.9461 21.2849C20.0311 21.4898 20.0738 21.7098 20.0714 21.9317C20.0738 22.1535 20.0311 22.3735 19.9461 22.5784C19.861 22.7833 19.7353 22.9688 19.5766 23.1238C19.4205 23.281 19.2347 23.4057 19.0301 23.4906C18.8255 23.5755 18.606 23.6191 18.3845 23.6186Z" fill="black"/>
<path d="M21.5671 20.9869C22.0979 20.9875 22.6118 20.8002 23.0179 20.4584C22.6118 20.8002 22.0979 20.9875 21.5671 20.9869ZM21.2072 20.9869C20.7911 20.9312 20.4002 20.7553 20.0825 20.4809C20.4081 20.731 20.7982 20.8832 21.2072 20.9195V20.9869ZM23.4565 19.9748C23.742 19.5234 23.8576 18.9852 23.7826 18.4565C23.8528 18.9729 23.7415 19.4976 23.4677 19.941L23.4565 19.9748ZM17.0685 17.433C16.8583 17.1632 16.7156 16.847 16.6523 16.5108C16.7273 16.835 16.8733 17.1384 17.0797 17.3993L17.0685 17.433ZM16.6523 15.6449C16.7156 15.3087 16.8583 14.9925 17.0685 14.7227C16.8701 14.9856 16.7319 15.2889 16.6636 15.6111L16.6523 15.6449Z" fill="white"/>
<path d="M18.8669 13.2381C18.4989 13.2358 18.1341 13.3073 17.7942 13.4483C17.4542 13.5893 17.1459 13.797 16.8876 14.0591C16.6261 14.3193 16.4186 14.6286 16.277 14.9693C16.1354 15.3099 16.0625 15.6752 16.0625 16.0441C16.0625 16.413 16.1354 16.7783 16.277 17.1189C16.4186 17.4596 16.6261 17.7689 16.8876 18.0291L19.5755 20.7283C19.8367 20.9897 20.1471 21.1968 20.4887 21.3377C20.8304 21.4786 21.1965 21.5505 21.5661 21.5492C21.9357 21.5505 22.3018 21.4786 22.6435 21.3377C22.9851 21.1968 23.2955 20.9897 23.5567 20.7283C24.0801 20.1979 24.3735 19.4827 24.3735 18.7376C24.3735 17.9925 24.0801 17.2774 23.5567 16.747L20.8576 14.0591C20.5964 13.7976 20.286 13.5905 19.9443 13.4496C19.6027 13.3087 19.2365 13.2368 18.8669 13.2381ZM21.5661 20.4246C21.1191 20.423 20.6907 20.2452 20.374 19.9297L17.6748 17.2418C17.3609 16.9222 17.1851 16.4921 17.1851 16.0441C17.1851 15.5961 17.3609 15.166 17.6748 14.8463C17.9941 14.5361 18.4218 14.3626 18.8669 14.3627C19.316 14.3596 19.7483 14.5333 20.0703 14.8463L22.7582 17.5455C22.916 17.7014 23.0413 17.887 23.1268 18.0916C23.2123 18.2963 23.2563 18.5158 23.2563 18.7376C23.2563 18.9594 23.2123 19.179 23.1268 19.3836C23.0413 19.5883 22.916 19.7739 22.7582 19.9297C22.6021 20.0869 22.4163 20.2116 22.2117 20.2966C22.0071 20.3815 21.7877 20.425 21.5661 20.4246Z" fill="black"/>
<path d="M24.7497 17.8041C24.1721 17.8048 23.6164 17.5834 23.1977 17.1856C23.6182 17.5793 24.1737 17.7966 24.7497 17.7929C25.3191 17.7903 25.8676 17.5781 26.2905 17.1968C25.8728 17.5878 25.3218 17.805 24.7497 17.8041ZM20.2511 14.2165C20.041 13.9466 19.8983 13.6304 19.835 13.2943C19.9115 13.6144 20.0574 13.9139 20.2624 14.1715L20.2511 14.2165ZM19.835 12.4283C19.8983 12.0922 20.041 11.776 20.2511 11.5061C20.0361 11.7758 19.8861 12.0913 19.8125 12.4283H19.835Z" fill="white"/>
<path d="M22.0623 10.0555C21.6942 10.0532 21.3294 10.1247 20.9895 10.2657C20.6495 10.4067 20.3413 10.6144 20.0829 10.8765C19.8214 11.1367 19.6139 11.446 19.4723 11.7867C19.3307 12.1273 19.2578 12.4926 19.2578 12.8615C19.2578 13.2304 19.3307 13.5956 19.4723 13.9363C19.6139 14.2769 19.8214 14.5863 20.0829 14.8465L22.7708 17.5456C23.032 17.8071 23.3424 18.0142 23.684 18.1551C24.0257 18.296 24.3918 18.3679 24.7614 18.3666C25.5074 18.3667 26.223 18.0716 26.752 17.5456C27.2754 17.0153 27.5688 16.3001 27.5688 15.555C27.5688 14.8099 27.2754 14.0948 26.752 13.5644L24.0529 10.8765C23.7917 10.615 23.4813 10.4079 23.1396 10.267C22.798 10.1261 22.4318 10.0542 22.0623 10.0555ZM24.7614 17.2307C24.5404 17.2345 24.3209 17.1936 24.116 17.1105C23.9112 17.0274 23.7252 16.9038 23.5693 16.7471L20.8701 14.0592C20.5562 13.7396 20.3804 13.3095 20.3804 12.8615C20.3804 12.4135 20.5562 11.9834 20.8701 11.6637C21.188 11.3514 21.6166 11.1775 22.0623 11.1801C22.2831 11.1776 22.5023 11.2191 22.7069 11.3021C22.9116 11.3851 23.0977 11.5081 23.2544 11.6637L25.9535 14.3629C26.2667 14.6806 26.4423 15.1089 26.4423 15.555C26.4423 16.0012 26.2667 16.4294 25.9535 16.7471C25.7976 16.9038 25.6117 17.0274 25.4068 17.1105C25.202 17.1936 24.9824 17.2345 24.7614 17.2307Z" fill="black"/>
</g>
</mask>
<g mask="url(#mask0_29_2565)">
<rect x="-0.789062" y="-2.60083" width="32.3241" height="32.3241" fill="white"/>
</g>
<defs>
<clipPath id="clip0_29_2565">
<rect width="24" height="23.9438" fill="white" transform="translate(4 0.990723)"/>
</clipPath>
</defs>
</svg>
