<svg class="svg-icon" style="width: 1em;height: 1em;vertical-align: middle;fill: currentColor;overflow: hidden;" viewBox="0 0 1024 1024" version="1.1" xmlns="http://www.w3.org/2000/svg"><path d="M512 85.333333c235.648 0 426.666667 191.018667 426.666667 426.666667s-191.018667 426.666667-426.666667 426.666667S85.333333 747.648 85.333333 512 276.352 85.333333 512 85.333333z m0 512.64a234.794667 234.794667 0 0 0-225.493333 169.386667l-0.170667 0.725333A340.053333 340.053333 0 0 0 512 853.333333a340.053333 340.053333 0 0 0 225.706667-85.248A234.752 234.752 0 0 0 512 597.973333zM512 170.666667a341.333333 341.333333 0 0 0-288.597333 523.648 320.426667 320.426667 0 0 1 160.042666-154.752 170.666667 170.666667 0 1 1 257.109334 0 320.554667 320.554667 0 0 1 160.085333 154.709333A341.333333 341.333333 0 0 0 512 170.666667z m0 171.306666a85.333333 85.333333 0 1 0 0 170.666667 85.333333 85.333333 0 0 0 0-170.666667z"  /></svg>